<svg width="221" height="40" viewBox="0 0 221 40" fill="none" xmlns="http://www.w3.org/2000/svg"><g clip-path="url(#clip0_8_18)"><path fill-rule="evenodd" clip-rule="evenodd" d="M5.7 5.7c3.1-3.2 6.7-5.7 8-5.7H0l5.7 5.7zM22.3 0H40L27.4 12.7c1.2-1.4 2-3.2 2-5.2 0-4.2-3.2-7.5-7.1-7.5zm25.1 12.7c1.2-1.4 2-3.2 2-5.2 0-4.2-3.2-7.5-7.1-7.5H60L47.4 12.7zm147.2 19.9c0-2 .8-3.8 2-5.2L184 40h17.7c-3.9 0-7.1-3.3-7.1-7.4zM130.3 0H148l-12.6 12.7c1.2-1.4 2-3.2 2-5.2 0-4.2-3.2-7.5-7.1-7.5zM16 24v16h8V24c0-4.4.8-8.8 1.7-9.7L16 24zm29.7-9.7c-.9.9-1.7 5.3-1.7 9.7 0 8.8 5.4 16 12 16-11 0-20-7.2-20-16l9.7-9.7zM76 24c0 8.8-9 16-20 16 6.6 0 12-7.2 12-16V0h8v24zm92-8v24h8V16c0-8.8 5.4-16 12-16s12 7.2 12 16c0 4.397-.799 8.795-1.698 9.698L208 16c0-8.8-9-16-20-16s-20 7.2-20 16zm-56 0c0-8.8-5.4-16-12-16 11 0 20 7.2 20 16l-9.7 6.5c.9-.7 1.7-3.6 1.7-6.5zM92 28V0h-8v28l9.7 9.7c-.9-.9-1.7-5.3-1.7-9.7zm8-4h8c0 8.8 5.4 16 12 16-11 0-20-7.2-20-16zm24 16h8V24c0-4.4.8-8.8 1.7-9.7L124 24v16zm16 0c6.6 0 12-7.2 12-16V0h8v24c0 8.8-9 16-20 16zm73-16c0 4.4 3.6 8 8 8 0-4.4-3.6-8-8-8zm8 8c-4.4 0-8 3.6-8 8 4.4 0 8-3.6 8-8zm-8 8c0-4.4-3.6-8-8-8 0 4.4 3.6 8 8 8zm-8-8c4.4 0 8-3.6 8-8-4.4 0-8 3.6-8 8z" fill="#000"/></g><defs><clipPath id="clip0_8_18"><path fill="#fff" d="M0 0H221V40H0z"/></clipPath></defs></svg>